<svg xmlns="http://www.w3.org/2000/svg" version="1.1" xmlns:xlink="http://www.w3.org/1999/xlink" xmlns:svgjs="http://svgjs.dev/svgjs" width="1000" height="262" viewBox="0 0 1000 262"><g transform="matrix(1,0,0,1,-0.6060415330958904,-0.2349456666665617)"><svg viewBox="0 0 396 104" data-background-color="#282634" preserveAspectRatio="xMidYMid meet" height="262" width="1000" xmlns="http://www.w3.org/2000/svg" xmlns:xlink="http://www.w3.org/1999/xlink"><g id="tight-bounds" transform="matrix(1,0,0,1,0.23999244710597623,0.09340674265533266)"><svg viewBox="0 0 395.52 103.81333067766165" height="103.81333067766165" width="395.52"><g><svg viewBox="0 0 395.52 103.81333067766165" height="103.81333067766165" width="395.52"><g transform="matrix(1,0,0,1,0,64.16080314306691)"><svg viewBox="0 0 395.52 39.65252753459474" height="39.65252753459474" width="395.52"><g id="textblocktransform"><svg viewBox="0 0 395.52 39.65252753459474" height="39.65252753459474" width="395.52" id="textblock"><g><svg viewBox="0 0 395.52 39.65252753459474" height="39.65252753459474" width="395.52"><g transform="matrix(1,0,0,1,0,0)"><svg width="395.52" viewBox="2.0999999046325684 -34.900001525878906 354.0799865722656 35.5" height="39.65252753459474" data-palette-color="#ff4057"><path d="M16.5 0.6Q12.55 0.6 9.28-0.63 6-1.85 4.05-4.25 2.1-6.65 2.1-10.05L2.1-10.05 2.15-11.15 9.5-11.15 9.45-10.35Q9.45-8.15 11.4-6.85 13.35-5.55 16.85-5.55L16.85-5.55Q20.55-5.55 22.2-6.53 23.85-7.5 23.85-9.15L23.85-9.15Q23.85-10.6 22.78-11.58 21.7-12.55 20.08-13.13 18.45-13.7 15.6-14.5L15.6-14.5Q11.55-15.65 9.05-16.7 6.55-17.75 4.75-19.83 2.95-21.9 2.95-25.3L2.95-25.3Q2.95-30 6.75-32.45 10.55-34.9 16.85-34.9L16.85-34.9Q22.8-34.9 26.58-32.38 30.35-29.85 30.35-24.8L30.35-24.8 30.35-24.2 23.15-24.2 23.15-24.65Q23.15-26.55 21.43-27.65 19.7-28.75 16.75-28.75L16.75-28.75Q13.6-28.75 11.93-27.9 10.25-27.05 10.25-25.55L10.25-25.55Q10.25-24.4 11.25-23.58 12.25-22.75 13.75-22.23 15.25-21.7 18-20.95L18-20.95Q22.1-19.85 24.73-18.78 27.35-17.7 29.25-15.6 31.15-13.5 31.15-10.1L31.15-10.1Q31.15-4.6 27.23-2 23.3 0.6 16.5 0.6L16.5 0.6ZM36.7 0L36.7-34.3 43.75-34.3 56.95-15.65Q57.55-14.8 58.95-12.3L58.95-12.3 59.2-12.45 59.05-15.35 59.05-34.3 66.1-34.3 66.1 0 59.05 0 45.8-18.8Q44.85-20.15 43.85-22.1L43.85-22.1 43.6-21.95Q43.75-19.8 43.75-18.95L43.75-18.95 43.75 0 36.7 0ZM72.8 0L72.8-34.3 99.75-34.3 99.75-28.15 80.05-28.15 80.05-20.6 97.55-20.6 97.55-14.45 80.05-14.45 80.05-6.15 100.05-6.15 100.05 0 72.8 0ZM102.89 0L116.29-34.3 125.39-34.3 138.79 0 130.89 0 128.44-6.55 112.84-6.55 110.39 0 102.89 0ZM115.09-12.6L126.14-12.6 122.89-21.3Q122.29-22.9 120.74-28.05L120.74-28.05 120.49-28.05Q118.94-22.9 118.34-21.3L118.34-21.3 115.09-12.6ZM142.24 0L142.24-34.3 149.49-34.3 149.49-17.75 165.34-34.3 174.14-34.3 160.74-20.35 174.34 0 165.74 0 155.89-15.25 149.49-9.95 149.49 0 142.24 0ZM178.34 0L178.34-34.3 205.29-34.3 205.29-28.15 185.59-28.15 185.59-20.6 203.09-20.6 203.09-14.45 185.59-14.45 185.59-6.15 205.59-6.15 205.59 0 178.34 0ZM211.69 0L211.69-34.3 229.89-34.3Q235.64-34.3 238.54-31.48 241.44-28.65 241.44-23.55L241.44-23.55Q241.44-16.35 235.44-13.95L235.44-13.95 242.44 0 234.59 0 228.54-12.8 218.94-12.8 218.94 0 211.69 0ZM218.94-18.85L229.24-18.85Q231.59-18.85 232.84-20.1 234.09-21.35 234.09-23.55L234.09-23.55Q234.09-25.75 232.84-26.95 231.59-28.15 229.24-28.15L229.24-28.15 218.94-28.15 218.94-18.85ZM263.13 0.6Q255.18 0.6 250.86-3.75 246.53-8.1 246.53-17.15L246.53-17.15Q246.53-26 251.13-30.45 255.73-34.9 264.13-34.9L264.13-34.9Q268.58-34.9 272.26-33.52 275.93-32.15 278.11-29.38 280.28-26.6 280.28-22.6L280.28-22.6 272.78-22.6Q272.78-25.4 270.31-27.08 267.83-28.75 264.38-28.75L264.38-28.75Q259.13-28.75 256.56-25.95 253.98-23.15 253.98-17.9L253.98-17.9 253.98-16.4Q253.98-10.9 256.36-8.22 258.73-5.55 263.63-5.55L263.63-5.55Q267.68-5.55 270.33-7.48 272.98-9.4 273.03-12.7L273.03-12.7 262.63-12.7 262.63-18.65 280.28-18.65 280.28 0 275.28 0 274.63-3.8Q272.23-1.5 269.58-0.45 266.93 0.6 263.13 0.6L263.13 0.6ZM302.78 0.6Q294.53 0.6 289.98-3.83 285.43-8.25 285.43-17.15L285.43-17.15Q285.43-26.05 289.98-30.48 294.53-34.9 302.78-34.9L302.78-34.9Q311.08-34.9 315.63-30.48 320.18-26.05 320.18-17.15L320.18-17.15Q320.18-8.25 315.63-3.83 311.08 0.6 302.78 0.6L302.78 0.6ZM302.78-5.55Q307.68-5.55 310.2-8.38 312.73-11.2 312.73-16.4L312.73-16.4 312.73-17.9Q312.73-23.1 310.2-25.93 307.68-28.75 302.78-28.75L302.78-28.75Q297.88-28.75 295.38-25.93 292.88-23.1 292.88-17.9L292.88-17.9 292.88-16.4Q292.88-11.2 295.38-8.38 297.88-5.55 302.78-5.55L302.78-5.55ZM325.58 0L325.58-34.3 339.78-34.3Q347.63-34.3 351.9-30.03 356.18-25.75 356.18-17.15L356.18-17.15Q356.18-8.55 351.9-4.28 347.63 0 339.78 0L339.78 0 325.58 0ZM332.83-6.15L339.78-6.15Q344.18-6.15 346.45-8.83 348.73-11.5 348.73-16.4L348.73-16.4 348.73-17.9Q348.73-22.8 346.45-25.48 344.18-28.15 339.78-28.15L339.78-28.15 332.83-28.15 332.83-6.15Z" opacity="1" transform="matrix(1,0,0,1,0,0)" fill="#ff4057" class="wordmark-text-0" data-fill-palette-color="primary" id="text-0"></path></svg></g></svg></g></svg></g></svg></g><g transform="matrix(1,0,0,1,150.04809838833998,0)"><svg viewBox="0 0 95.42380322332002 54.79979305280993" height="54.79979305280993" width="95.42380322332002"><g><svg xmlns="http://www.w3.org/2000/svg" xmlns:xlink="http://www.w3.org/1999/xlink" xml:space="preserve" style="shape-rendering:geometricPrecision;text-rendering:geometricPrecision;image-rendering:optimizeQuality;" viewBox="0.00005081202834844589 0.00006598234176635742 65.4085464477539 37.56269073486328" x="0" y="0" fill-rule="evenodd" clip-rule="evenodd" width="95.42380322332002" height="54.79979305280993" class="icon-icon-0" data-fill-palette-color="accent" id="icon-0"><g fill="#dcdcdc" data-fill-palette-color="accent"><path class="" d="M2.847 3.071c0.092 0.554 0.181 1.112 0.263 1.672 0.644 4.357 0.929 8.884-0.487 13.044-1.268 3.722-2.427 7.315-2.199 11.226-0.036 0.811-0.289 1.237-0.346 2.074-0.035 0.507-0.056 1.004-0.069 1.404-0.034 1.066 0.025 1.354 0.206 2.153 0.077 0.346 0.226 0.477 0.447 0.595 2.316 1.301 7.567 1.889 11.119 1.742 0.863-0.036 1.625-0.067 2.2-0.071 0.007 0 0.015 0 0.023 0 2.856-0.106 6.939-0.168 10.881-0.137 3.223 0.026 6.359 0.115 8.659 0.294l0 0c2.422 0.245 4.323 0.379 6.212 0.444 1.882 0.065 3.75 0.061 6.112 0.029 3.196 0.039 6.859-0.46 10.159-1.168 3.737-0.801 7.03-1.875 8.669-2.741 0.473-0.233 0.563-0.567 0.625-0.907 0.082-0.722 0.119-1.48 0.055-2.31-0.065-0.852-0.236-1.778-0.571-2.818-0.101-0.298-0.294-0.726-0.725-1.021-2.321-1.673-5.456-1.304-8.159-1.264-0.458 0.012-0.977 0.069-1.473 0.087l-0.006-0.009c-0.095 0.004-0.191 0.007-0.286 0.01-0.452-0.095-1.415-0.314-2.232-0.5-0.749-0.171-1.19 0.55-1.318 1.236-0.005 0.044-0.013 0.087-0.021 0.131-0.155 0.753-0.857 1.267-1.642 1.153-0.786-0.113-1.317-0.856-1.215-1.658 0.12-0.948-0.048-1.94-1.513-2.426-0.44-0.146-0.833-0.309-1.226-0.479-1.21-0.52-1.981-0.324-2.694 1.401-0.017 0.041-0.036 0.08-0.055 0.12-0.351 0.684-1.166 0.99-1.893 0.669-0.726-0.32-1.087-1.196-0.748-1.93 0.593-1.285 0.932-2.294-0.522-3.114-0.325-0.184-0.621-0.391-0.928-0.575-1.057-0.634-1.886-1.191-3.216 0.324l-0.601 0.741c-0.027 0.035-0.056 0.068-0.085 0.101-0.522 0.565-1.4 0.632-2.003 0.138-0.625-0.512-0.717-1.435-0.204-2.06 0.161-0.196 0.32-0.395 0.483-0.59 0.789-0.947 1.364-2.084-0.328-3.697-1.139-1.086-1.879-1.567-3.77 0.002l-0.628 0.528c-0.033 0.029-0.068 0.056-0.103 0.083-0.619 0.456-1.494 0.355-1.993-0.244-0.517-0.622-0.432-1.545 0.191-2.062 0.321-0.267 0.632-0.547 0.962-0.801 1.967-1.517 0.894-2.75 0.123-3.596-0.904-0.992-1.552-1.802-3.56-0.289l-0.746 0.603c-0.034 0.029-0.069 0.055-0.105 0.082-0.628 0.444-1.501 0.327-1.987-0.282-0.505-0.631-0.403-1.552 0.228-2.057 0.449-0.359 0.877-0.745 1.345-1.08 1.523-1.091 0.226-3.505-0.641-4.524-0.811-0.953-1.308-0.887-2.371-0.398-0.838 0.386-1.881 1.2-2.447 2.129-2.066 2.986-5.124-0.215-8.107-0.631-1.743-0.243-6.72-1.562-5.739 1.224z m-0.779 27.158c1.691 0.316 4.381 1.662 8.618 1.572 6.634-0.14 13.799-1.071 21.034-0.1 11.462 1.537 18.055 0.866 23.468-1.579 0.535-0.079 0.855-0.952 0.742-1.361-0.21-0.79-0.511-1.614-0.83-2.238-0.057-0.364 0.415-0.349 0.892-0.369 3.682-0.101 5.569-0.219 7.315 0.946 0.402 0.268 0.566 0.474 0.671 0.813 0.292 0.943 0.449 1.783 0.508 2.557 0.151 1.974-0.131 2.416-1.614 3.01-1.706 0.683-4.172 1.41-7 2.016-3.26 0.699-6.868 1.192-10.001 1.153l-0.008 0-0.002 0c-2.349 0.032-4.207-0.105-6.082-0.17-5.036-0.174-9.662-0.554-14.888-0.596-4.339-0.035-8.816 0.03-13.139 0.208-2.972 0.122-6.918-0.277-9.339-1.089-1.148-0.385-1.222-0.459-1.3-1.604-0.063-0.924-0.068-2.318 0.166-2.732 0.217-0.385 0.557-0.449 0.789-0.437z m11.573-20.256c-3.652 0-6.612 2.96-6.611 6.612 0 3.652 2.96 6.612 6.611 6.612 3.652 0 6.612-2.96 6.612-6.612 0-3.652-2.96-6.612-6.612-6.612z" fill="#dcdcdc" data-fill-palette-color="accent"></path></g></svg></g></svg></g><g></g></svg></g><defs></defs></svg><rect width="395.52" height="103.81333067766165" fill="none" stroke="none" visibility="hidden"></rect></g></svg></g></svg>