<svg xmlns="http://www.w3.org/2000/svg" version="1.1" xmlns:xlink="http://www.w3.org/1999/xlink" xmlns:svgjs="http://svgjs.dev/svgjs" width="1000" height="1000" viewBox="0 0 1000 1000"><rect width="1000" height="1000" fill="#ffffff"></rect><g transform="matrix(0.7,0,0,0.7,149.57575757575756,400.6036642647221)"><svg viewBox="0 0 396 113" data-background-color="#282634" preserveAspectRatio="xMidYMid meet" height="285" width="1000" xmlns="http://www.w3.org/2000/svg" xmlns:xlink="http://www.w3.org/1999/xlink"><g id="tight-bounds" transform="matrix(1,0,0,1,0.2400000000000091,-0.20032111234885974)"><svg viewBox="0 0 395.52 113.40064222469769" height="113.40064222469769" width="395.52"><g><svg viewBox="0 0 395.52 113.40064222469769" height="113.40064222469769" width="395.52"><g><svg viewBox="0 0 395.52 113.40064222469769" height="113.40064222469769" width="395.52"><g id="textblocktransform"><svg viewBox="0 0 395.52 113.40064222469769" height="113.40064222469769" width="395.52" id="textblock"><g><rect width="395.52" height="88.12091212898497" fill="none" stroke-width="9.018103199999999" stroke="#000000" data-fill-palette-color="none" data-stroke-palette-color="tertiary"></rect><rect width="395.52" height="25.279730095712715" y="88.12091212898497" fill="#000000" data-fill-palette-color="tertiary"></rect></g><g><svg viewBox="0 0 395.52 88.12091212898497" height="88.12091212898497" width="395.52"><g transform="matrix(1,0,0,1,23.607599999999998,23.607599999999998)"><svg width="348.3048" viewBox="0.5 -31.549999237060547 272.8800048828125 32.04999923706055" height="40.90571212898497" data-palette-color="#ff4057"><path d="M0.5-21.1Q0.5-26.05 3.5-28.8 6.5-31.55 11.83-31.55 17.15-31.55 22.8-30.55L22.8-30.55 21.65-21.75Q15.4-23 13.45-23 11.5-23 11.5-21.8L11.5-21.8Q11.5-21.35 11.8-21.18 12.1-21 12.25-20.9 12.4-20.8 12.83-20.65 13.25-20.5 13.53-20.38 13.8-20.25 15.33-19.63 16.85-19 17.63-18.63 18.4-18.25 19.75-17.4L19.75-17.4Q23.65-14.85 23.65-9.9 23.65-4.95 20.7-2.23 17.75 0.5 12.23 0.5 6.7 0.5 1.4-0.85L1.4-0.85 2.1-9.3Q8.8-7.6 11.15-7.6L11.15-7.6Q12.7-7.6 12.7-8.7L12.7-8.7Q12.7-9.2 12.33-9.5 11.95-9.8 11.23-10.15 10.5-10.5 9.1-11.08 7.7-11.65 6.75-12.08 5.8-12.5 4.5-13.4L4.5-13.4Q0.5-16.15 0.5-21.1ZM52.5-31.05L52.5 0 42.3 0 36-12.25 35.65-12.25 35.65 0 26.15 0 26.15-31.05 36.7-31.05 42.6-18.4 42.9-18.4 42.9-31.05 52.5-31.05ZM77-7.6L76.3 0 56.5 0 56.5-31.05 77-31.05 76.3-22.8 67.2-22.8 67.2-19.05 75.15-19.05 75.15-11.85 67.2-11.85 67.2-7.6 77-7.6ZM99.24-31.05L105.69 0 95.19 0 94.19-4.8 88.64-4.8 87.59 0 77.54 0 83.99-31.05 99.24-31.05ZM89.39-11.25L93.44-11.25 91.54-21.65 91.34-21.65 89.39-11.25ZM127.34-14.9L133.29 0 121.54 0 118.39-10.3 117.84-10.3 117.84 0 107.69 0 107.69-31.05 117.84-31.05 117.84-18.75 118.39-18.75 122.34-31.05 133.79-31.05 127.34-14.9ZM155.79-7.6L155.09 0 135.29 0 135.29-31.05 155.79-31.05 155.09-22.8 145.99-22.8 145.99-19.05 153.94-19.05 153.94-11.85 145.99-11.85 145.99-7.6 155.79-7.6ZM182.89-21.05L182.89-21.05Q182.89-18.05 181.91-16.28 180.94-14.5 178.89-13.15L178.89-13.15 183.54 0 172.49 0 169.39-10.7 168.59-10.7 168.59 0 158.34 0 158.34-31.05 171.59-31.05Q177.39-31.05 180.14-28.63 182.89-26.2 182.89-21.05ZM169.64-16.8Q170.79-16.8 171.26-17.48 171.74-18.15 171.74-19.85 171.74-21.55 171.24-22.2 170.74-22.85 169.69-22.85L169.69-22.85 168.39-22.85 168.39-16.8 169.64-16.8ZM200.18-7.65L200.18-7.65Q201.08-7.65 202.58-7.95L202.58-7.95 202.58-10.95 200.08-10.95 200.08-17.85 211.88-17.85 211.88 0 204.33 0 203.58-1.6 203.38-1.6Q200.78 0.5 197.23 0.5L197.23 0.5Q185.53 0.5 185.53-15.3L185.53-15.3Q185.53-23.2 188.71-27.38 191.88-31.55 199.43-31.55L199.43-31.55Q205.03-31.55 210.03-30L210.03-30 208.38-20.6Q202.78-22.15 200.36-22.15 197.93-22.15 197.16-20.55 196.38-18.95 196.38-15.1 196.38-11.25 197.11-9.45 197.83-7.65 200.18-7.65ZM215.08-15.73Q215.08-24.05 218.41-27.8 221.73-31.55 229.36-31.55 236.98-31.55 240.26-27.85 243.53-24.15 243.53-15.83 243.53-7.5 240.16-3.5 236.78 0.5 229.26 0.5 221.73 0.5 218.41-3.45 215.08-7.4 215.08-15.73ZM232.13-21.68Q231.48-22.95 229.33-22.95 227.18-22.95 226.58-21.7 225.98-20.45 225.98-16.35L225.98-16.35 225.98-14.15Q225.98-9.95 226.63-8.7 227.28-7.45 229.48-7.45 231.68-7.45 232.23-8.65 232.78-9.85 232.78-14L232.78-14 232.78-16.3Q232.78-20.4 232.13-21.68ZM273.38-16.2L273.38-16.2Q273.38 0 258.58 0L258.58 0 246.53 0 246.53-31.05 258.83-31.05Q266.78-31.05 270.08-27.23 273.38-23.4 273.38-16.2ZM258.43-7.8Q260.98-7.8 261.73-9.55 262.48-11.3 262.48-15.38 262.48-19.45 261.65-21.18 260.83-22.9 258.23-22.9L258.23-22.9 257.18-22.9 257.18-7.8 258.43-7.8Z" opacity="1" transform="matrix(1,0,0,1,0,0)" fill="#000000" class="wordmark-text-0" data-fill-palette-color="primary" id="text-0"></path></svg></g></svg></g></svg></g></svg></g></svg></g><defs></defs></svg><rect width="395.52" height="113.40064222469769" fill="none" stroke="none" visibility="hidden"></rect></g></svg></g></svg>